HIERARCHY
ROOT Character1_Hips
{
  OFFSET 90.7871 96.1215 -126.823
  CHANNELS 6 Xposition Yposition Zposition Zrotation Xrotation Yrotation
  JOINT Character1_Spine
  {
    OFFSET 0 8.754 -1.339
    CHANNELS 3 Zrotation Xrotation Yrotation
    JOINT Character1_Spine1
    {
      OFFSET 0 10.855 -0.645
      CHANNELS 3 Zrotation Xrotation Yrotation
      JOINT Character1_LeftShoulder
      {
        OFFSET 1.467 27.745 1.178
        CHANNELS 3 Zrotation Xrotation Yrotation
        JOINT Character1_LeftArm
        {
          OFFSET 18.486 -1.858 0.275
          CHANNELS 3 Zrotation Xrotation Yrotation
          JOINT Character1_LeftForeArm
          {
            OFFSET 32.391 -1.079 3.409
            CHANNELS 3 Zrotation Xrotation Yrotation
            JOINT Character1_LeftHand
            {
              OFFSET 28.678 -2.281 2.112
              CHANNELS 3 Zrotation Xrotation Yrotation
              End Site
              {
                OFFSET -0.000241878 -0.00028536 -9.11487e-005
              }
            }
            JOINT L_Radius
            {
              OFFSET -8.94447e-005 -0.392541 -0.0893675
              CHANNELS 3 Zrotation Xrotation Yrotation
              End Site
              {
                OFFSET 0 0 0
              }
            }
          }
          JOINT L_Humerus
          {
            OFFSET 42.9881 15.7281 -23.1008
            CHANNELS 3 Zrotation Xrotation Yrotation
            End Site
            {
              OFFSET 0 0 0
            }
          }
        }
        JOINT L_Shoulder
        {
          OFFSET 3.24498e-005 -0.000608592 -0.000527677
          CHANNELS 3 Zrotation Xrotation Yrotation
          End Site
          {
            OFFSET 0 0 0
          }
        }
      }
      JOINT Character1_RightShoulder
      {
        OFFSET -1.467 27.745 1.178
        CHANNELS 3 Zrotation Xrotation Yrotation
        JOINT Character1_RightArm
        {
          OFFSET -18.486 -1.858 0.275
          CHANNELS 3 Zrotation Xrotation Yrotation
          JOINT Character1_RightForeArm
          {
            OFFSET -32.391 -1.079 3.409
            CHANNELS 3 Zrotation Xrotation Yrotation
            JOINT Character1_RightHand
            {
              OFFSET -28.678 -2.281 2.112
              CHANNELS 3 Zrotation Xrotation Yrotation
              End Site
              {
                OFFSET 0.000589556 -0.000254961 0.000258925
              }
            }
            JOINT R_Radius
            {
              OFFSET 0.000437123 -0.392512 -0.0890171
              CHANNELS 3 Zrotation Xrotation Yrotation
              End Site
              {
                OFFSET 0 0 0
              }
            }
          }
          JOINT R_Humerus
          {
            OFFSET -42.9874 15.7281 -23.1005
            CHANNELS 3 Zrotation Xrotation Yrotation
            End Site
            {
              OFFSET 0 0 0
            }
          }
        }
        JOINT R_Shoulder
        {
          OFFSET -3.24498e-005 -0.000608592 -0.000527677
          CHANNELS 3 Zrotation Xrotation Yrotation
          End Site
          {
            OFFSET 0 0 0
          }
        }
      }
      JOINT Character1_Neck
      {
        OFFSET 0 30.836 0.626
        CHANNELS 3 Zrotation Xrotation Yrotation
        JOINT Character1_Head
        {
          OFFSET 0 8.074 3.498
          CHANNELS 3 Zrotation Xrotation Yrotation
          End Site
          {
            OFFSET 0 -0.00153379 1.54668e-005
          }
        }
        JOINT Neck
        {
          OFFSET -1.081 0.0895931 1.11904
          CHANNELS 3 Zrotation Xrotation Yrotation
          End Site
          {
            OFFSET 0 0 0
          }
        }
      }
      JOINT Torso
      {
        OFFSET 0 -0.000828813 -0.000380861
        CHANNELS 3 Zrotation Xrotation Yrotation
        End Site
        {
          OFFSET 0 0 0
        }
      }
    }
    JOINT Spine
    {
      OFFSET 0.000587497 -0.0991208 -0.558053
      CHANNELS 3 Zrotation Xrotation Yrotation
      End Site
      {
        OFFSET 0 0 0
      }
    }
  }
  JOINT Character1_RightUpLeg
  {
    OFFSET -9.035 -4.63425 1.845
    CHANNELS 3 Zrotation Xrotation Yrotation
    JOINT Character1_RightLeg
    {
      OFFSET -0.919521 -40.345 1.155
      CHANNELS 3 Zrotation Xrotation Yrotation
      JOINT Character1_RightFoot
      {
        OFFSET 1.95452 -45.2655 -4.18888
        CHANNELS 3 Zrotation Xrotation Yrotation
        JOINT Character1_RightToeBase
        {
          OFFSET 1.87056 -6.69517 14.7145
          CHANNELS 3 Zrotation Xrotation Yrotation
          End Site
          {
            OFFSET 0 0 0
          }
        }
        JOINT R_Foot
        {
          OFFSET 8 -7.75529 4.18888
          CHANNELS 3 Zrotation Xrotation Yrotation
          End Site
          {
            OFFSET 0 0 0
          }
        }
      }
      JOINT R_Tibia
      {
        OFFSET 0 0 0
        CHANNELS 3 Zrotation Xrotation Yrotation
        End Site
        {
          OFFSET 0 0 0
        }
      }
    }
    JOINT R_Femur
    {
      OFFSET 0 0 0
      CHANNELS 3 Zrotation Xrotation Yrotation
      End Site
      {
        OFFSET 0 0 0
      }
    }
  }
  JOINT Character1_LeftUpLeg
  {
    OFFSET 9.035 -4.63425 1.845
    CHANNELS 3 Zrotation Xrotation Yrotation
    JOINT Character1_LeftLeg
    {
      OFFSET 0.919521 -40.345 1.155
      CHANNELS 3 Zrotation Xrotation Yrotation
      JOINT Character1_LeftFoot
      {
        OFFSET -1.95452 -45.2655 -4.18888
        CHANNELS 3 Zrotation Xrotation Yrotation
        JOINT Character1_LeftToeBase
        {
          OFFSET -1.87056 -6.69517 14.7145
          CHANNELS 3 Zrotation Xrotation Yrotation
          End Site
          {
            OFFSET 0 0 0
          }
        }
        JOINT L_Foot
        {
          OFFSET -8 -7.75529 4.18888
          CHANNELS 3 Zrotation Xrotation Yrotation
          End Site
          {
            OFFSET 0 0 0
          }
        }
      }
      JOINT L_Tibia
      {
        OFFSET 0 0 0
        CHANNELS 3 Zrotation Xrotation Yrotation
        End Site
        {
          OFFSET 0 0 0
        }
      }
    }
    JOINT L_Femur
    {
      OFFSET 0 0 0
      CHANNELS 3 Zrotation Xrotation Yrotation
      End Site
      {
        OFFSET 0 0 0
      }
    }
  }
  JOINT Pelvis
  {
    OFFSET 0 0 0
    CHANNELS 3 Zrotation Xrotation Yrotation
    End Site
    {
      OFFSET 0 0 0
    }
  }
}
MOTION
Frames:	8
Frame Time:	0.00833333
-17.1029 92.9821 -122.521 1.96586 10.3341 -41.0234 7.95139e-016 0 -0 -6.74486 20.8269 14.6594 -3.92412 3.79288 -2.26053 -59.6901 8.48098 4.08357 -4.13822e-005 9.22959e-006 -63.4351 12.07 -0.477729 -5.24097 -2.60174e-015 20 -1.69234e-015 83 1.59028e-015 -85 3.18055e-015 3.18055e-015 -6.36111e-015 -8.12778 0.940046 10.6509 67.5862 17.186 -7.90041 6.82342e-005 0.00011654 62.3633 -13.491 13.0576 1.95016 4.48435e-015 20 -8.46169e-015 -83 0 85 1.59028e-015 6.36111e-015 1.59028e-015 -1.59028e-015 -6.36111e-015 3.18055e-015 -0.107417 -16.5024 21.7767 -5.45197 -9.11317 4.64239 -1.59028e-015 -6.36111e-015 3.18055e-015 -1.6115 7.10712 4.54466 3.50601 -27.9829 -16.2875 0.239328 61.4346 -0.217092 16.9708 23.668 -6.8651 0.237035 -8.42441 0.0230863 4.77083e-015 -1.59028e-015 -1.59028e-015 -8.82781e-032 -1.59028e-015 -3.18055e-015 -3.18055e-015 7.95139e-016 -6.36111e-015 6.87814 -38.9938 19.8171 -0.149682 39.6157 -0.0749856 0.175451 -2.05026 -11.174 4.9869 -4.27289 0.126248 2.64834e-031 -1.59028e-015 9.54166e-015 -1.59028e-015 0 -3.18055e-015 -1.59028e-015 3.18055e-015 -0 7.95139e-016 0 -0 
-19.1794 92.4663 -122.38 1.88496 9.9107 -40.7656 -1.59028e-015 -1.59028e-015 3.18055e-015 -6.94932 21.3991 13.7942 -4.00411 3.62639 -2.48089 -58.8474 8.47167 3.13458 -4.14826e-005 9.42772e-006 -62.8184 11.8703 -0.397579 -5.21849 -2.31525e-015 20 6.76935e-015 83 0 -85 -3.18055e-015 0 3.18055e-015 -7.7993 1.1827 10.6511 67.9227 16.9734 -8.03105 7.18304e-005 0.000123165 60.6442 -13.2115 13.3214 1.76167 -2.35034e-015 20 3.38468e-015 -83 -1.27222e-014 85 -1.59028e-015 0 1.59028e-015 -4.77083e-015 3.18055e-015 -6.36111e-015 0.199803 -16.664 22.4027 -5.13287 -9.49278 4.66889 -4.77083e-015 3.18055e-015 -6.36111e-015 -1.69213 7.30354 4.22031 1.73248 -29.8133 -17.0727 0.30267 64.8558 -0.263716 15.7173 21.9533 -8.40123 0.224271 -7.96756 0.0229038 3.18055e-015 0 -0 -3.18055e-015 1.59028e-015 3.18055e-015 -3.18055e-015 1.59028e-015 -3.18055e-015 6.7225 -38.6262 18.5239 -0.121969 41.7455 -0.0140786 2.24854 -6.01909 -9.98066 4.53977 -2.91434 0.0468675 7.95139e-016 0 -9.54166e-015 -2.38542e-015 0 3.18055e-015 4.77083e-015 3.18055e-015 -0 -1.59028e-015 -1.59028e-015 3.18055e-015 
-21.247 92.0614 -122.307 1.85959 9.52882 -40.1737 0 7.95139e-016 -0 -7.08395 22.0451 12.7657 -3.82896 3.4365 -2.92925 -58.0337 8.44378 2.01088 -4.15442e-005 9.54671e-006 -62.4464 11.8095 -0.112605 -5.3037 1.15763e-015 20 -3.38468e-015 83 -1.59028e-015 -85 6.36111e-015 9.54166e-015 -3.18055e-015 -7.36985 1.47593 10.6223 68.2306 16.5768 -8.17445 7.59974e-005 0.000130296 58.7605 -13.0835 13.496 1.4904 -6.48975e-016 20 -5.07701e-015 -83 -6.36111e-015 85 -3.53113e-031 1.27222e-014 1.59028e-015 -1.59028e-015 1.27222e-014 -9.54166e-015 0.617155 -16.9471 22.8395 -4.77642 -9.90986 4.67087 -1.59028e-015 1.27222e-014 -9.54166e-015 -1.77372 7.50736 3.86876 -0.232457 -31.5306 -17.8822 0.361122 67.1069 -0.291101 13.8204 20.4741 -9.10867 0.213971 -7.60098 0.0227221 3.18055e-015 -3.57812e-015 1.59028e-015 3.18055e-015 -4.77083e-015 -6.36111e-015 -3.18055e-015 -1.59028e-015 3.18055e-015 6.90261 -38.2433 17.3317 -0.102431 43.2372 0.018121 1.96015 -7.95819 -9.22489 4.06721 -2.82814 0.0265504 -7.95139e-016 7.95139e-016 -0 -7.95139e-016 3.18055e-015 -9.54166e-015 1.59028e-015 0 -0 0 7.95139e-016 -0 
-23.3152 91.6545 -122.236 1.84223 9.14733 -39.5842 7.95139e-016 0 -0 -7.20953 22.6851 11.7287 -3.65646 3.2465 -3.37747 -57.2214 8.41234 0.887142 -4.16066e-005 9.66532e-006 -62.0744 11.7496 0.172067 -5.38925 5.7823e-015 20 1.69234e-015 83 1.59028e-015 -85 3.18055e-015 -3.18055e-015 3.18055e-015 -6.93996 1.76924 10.5937 68.5366 16.1804 -8.31772 8.03966e-005 0.000137287 56.8767 -12.9539 13.6708 1.21887 -1.19271e-015 20 -0 -83 -6.36111e-015 85 -1.76556e-031 -6.36111e-015 -1.59028e-015 -1.59028e-015 -3.18055e-015 3.18055e-015 1.03304 -17.2309 23.2774 -4.38433 -10.364 4.65413 -1.59028e-015 -3.18055e-015 3.18055e-015 -1.85548 7.71887 3.49326 -2.20304 -33.2627 -18.702 0.410052 69.359 -0.321552 11.9535 19.0487 -9.91373 0.203669 -7.23431 0.0225358 9.54166e-015 1.19271e-015 -1.59028e-015 0 0 -3.18055e-015 -3.18055e-015 0 6.36111e-015 7.09101 -37.8569 16.1467 -0.0854892 44.7316 0.050097 1.67001 -9.9077 -8.48812 3.59473 -2.74078 0.00761617 0 0 -6.36111e-015 -3.18055e-015 -3.18055e-015 -0 -1.59028e-015 6.36111e-015 -3.18055e-015 7.95139e-016 0 -0 
-25.3841 91.2458 -122.166 1.83285 8.76635 -38.9968 -7.95139e-016 0 1.27222e-014 -7.32591 23.3189 10.6829 -3.48665 3.05651 -3.82548 -56.4111 8.37746 -0.23622 -4.16697e-005 9.78346e-006 -61.7025 11.6908 0.456454 -5.47517 5.78814e-016 20 -1.69234e-015 83 -9.54166e-015 -85 5.29669e-031 -9.54166e-015 3.18055e-015 -6.50967 2.0627 10.5655 68.8404 15.7842 -8.46083 8.50232e-005 0.000144129 54.9929 -12.8227 13.8456 0.947052 2.98177e-015 20 -0 -83 6.36111e-015 85 1.59028e-015 3.18055e-015 -3.18055e-015 -1.59028e-015 3.18055e-015 -3.18055e-015 1.44778 -17.5152 23.7164 -4.00377 -10.8053 4.62931 -1.59028e-015 3.18055e-015 -3.18055e-015 -1.92385 7.92401 3.12233 -4.18118 -34.9857 -19.5344 0.473004 71.5897 -0.371341 10.1129 17.681 -10.8119 0.193368 -6.86774 0.0223448 3.18055e-015 3.97569e-016 -0 -8.82781e-031 7.95139e-015 6.36111e-015 -1.59028e-015 1.59028e-015 -0 7.28514 -37.4737 14.967 -0.0675488 46.2345 0.0821219 1.37693 -11.8675 -7.77072 3.12234 -2.65227 -0.0100365 -7.95139e-016 7.95139e-016 3.18055e-015 3.18055e-015 0 -6.36111e-015 -1.59028e-015 0 -1.27222e-014 -7.95139e-016 0 1.27222e-014 
-27.454 90.8351 -122.098 1.83139 8.38597 -38.4116 7.95139e-016 -3.97569e-015 -0 -7.43321 23.9465 9.62835 -3.31948 2.86634 -4.27346 -55.6022 8.33908 -1.35976 -4.17336e-005 9.90128e-006 -61.3304 11.633 0.740537 -5.56144 -2.60174e-015 20 -1.69234e-015 83 0 -85 -3.18055e-015 -3.18055e-015 -0 -6.07891 2.35613 10.5374 69.1423 15.3882 -8.60382 8.98723e-005 0.000150816 53.1092 -12.69 14.0205 0.674921 2.43073e-015 20 -4.23084e-016 -83 -6.36111e-015 85 -8.82781e-032 3.18055e-015 1.59028e-015 -1.59028e-015 3.18055e-015 3.18055e-015 1.86137 -17.8004 24.1564 -3.68149 -11.1835 4.60702 -1.59028e-015 3.18055e-015 3.18055e-015 -1.96607 8.10881 2.78461 -6.17004 -36.6937 -20.382 0.547532 73.795 -0.433229 8.29529 16.3747 -11.7989 0.183074 -6.50113 0.0221492 -9.54166e-015 -5.96354e-015 -0 -0 -4.77083e-015 -0 0 1.59028e-015 -0 7.4863 -37.0885 13.7931 -0.0507347 47.7409 0.113808 1.07969 -13.8374 -7.07327 2.65003 -2.56263 -0.0262448 0 0 -0 -0 0 3.18055e-015 1.59028e-015 0 -0 7.95139e-016 -3.97569e-015 -0 
-29.5218 90.6537 -122.055 1.79496 8.20068 -37.8869 7.95139e-016 -1.59028e-015 3.18055e-015 -7.2996 24.4068 8.83079 -2.86323 2.48155 -4.77309 -55.2388 8.24759 -2.34313 -4.17168e-005 9.87046e-006 -61.4279 11.7744 1.32486 -5.7649 4.33818e-015 20 -3.38468e-015 83 -1.59028e-015 -85 -3.18055e-015 -3.18055e-015 3.18055e-015 -5.69547 2.66747 10.418 69.46 15.1531 -8.92898 9.37263e-005 0.000155819 51.669 -12.4743 13.9943 0.257622 1.20842e-015 20 3.17313e-016 -83 6.36111e-015 85 8.82781e-032 -3.18055e-015 1.59028e-015 3.18055e-015 0 -0 2.15917 -18.0873 24.3111 -3.41141 -11.4907 4.58351 3.18055e-015 0 -0 -1.98123 8.27702 2.48386 -7.85723 -38.0637 -20.7777 0.563385 74.4584 -0.461539 7.11148 15.4987 -11.9796 0.180145 -6.47607 0.0219634 -3.18055e-015 -3.97569e-015 1.59028e-015 -3.18055e-015 3.18055e-015 -9.54166e-015 -1.59028e-015 -9.54166e-015 9.54166e-015 8.20818 -36.4189 13.1909 -0.042202 48.3539 0.159156 0.280635 -14.7632 -7.23372 2.15631 -2.99883 -0.00568813 -3.97569e-016 -7.95139e-016 -6.36111e-015 1.59028e-015 -3.18055e-015 3.18055e-015 1.59028e-015 0 -3.18055e-015 7.95139e-016 -1.59028e-015 3.18055e-015 
-31.5888 90.4754 -122.012 1.76208 8.01538 -37.3629 7.95139e-016 7.95139e-016 -6.36111e-015 -7.16059 24.8625 8.02767 -2.41344 2.09705 -5.27265 -54.8786 8.1535 -3.32615 -4.17001e-005 9.83963e-006 -61.5253 11.9209 1.90754 -5.97028 6.36111e-015 20 -0 83 5.56597e-015 -85 3.18055e-015 -6.36111e-015 -0 -5.31062 2.97907 10.2989 69.7749 14.9178 -9.25349 9.77051e-005 0.000160723 50.2287 -12.2589 13.9673 -0.159575 4.45073e-016 20 -2.11542e-016 -83 0 85 -2.64834e-031 9.54166e-015 1.59028e-015 -3.18055e-015 -3.18055e-015 -0 2.45725 -18.3755 24.4667 -3.17482 -11.7518 4.5552 -3.18055e-015 -3.18055e-015 -0 -1.97608 8.43362 2.20618 -9.54561 -39.4323 -21.1717 0.574782 75.1193 -0.487908 5.93693 14.6373 -12.196 0.180032 -6.45102 0.0217716 -1.32417e-031 2.38542e-015 3.18055e-015 -3.18055e-015 0 6.36111e-015 -3.53113e-031 -6.36111e-015 -3.18055e-015 8.92962 -35.7465 12.5892 -0.0331007 48.9592 0.204742 -0.524686 -15.6782 -7.42172 1.66234 -3.43445 0.00734471 -3.97569e-016 7.95139e-016 3.18055e-015 0 0 -0 3.18055e-015 -3.18055e-015 -3.18055e-015 7.95139e-016 7.95139e-016 -6.36111e-015 
